<?xml version="1.0" encoding="utf-8"?>
<!-- Generator: Adobe Illustrator 16.0.0, SVG Export Plug-In . SVG Version: 6.00 Build 0)  -->
<!DOCTYPE svg PUBLIC "-//W3C//DTD SVG 1.1//EN" "http://www.w3.org/Graphics/SVG/1.1/DTD/svg11.dtd">
<svg version="1.1" id="Layer_1" xmlns="http://www.w3.org/2000/svg" xmlns:xlink="http://www.w3.org/1999/xlink" x="0px" y="0px"
	 width="1000px" height="371.904px" viewBox="0 0 1000 371.904" enable-background="new 0 0 1000 371.904" xml:space="preserve">
<g>
	<path fill="#7754B2" d="M841.325,86.894c6.813,2.071,11.088,6.77,14.827,11.393c4.771,5.921,6.835,12.808,10.624,20.474
		c13.142,26.888,25.518,84.864,14.088,111.385c-2.653,6.22-6.119,14.178-12.54,17.287c0.447,6.378,0.848,12.756,1.303,19.142
		c2.301-1.603,4.944-3.217,7.364-4.712c3.756-2.308,7.419-4.516,11.12-6.692c15.831-9.246,48.87-17.3,68.317-11.368
		c1.647-2.352,6.327-14.313,6.27-17.548c-14.143,1.881-22.49-8.716-28.257-18.513c-9.577-16.18-13.824-43.225-13.824-65.67
		c0-6.12-0.143-12.939,0.975-20.869c1.057-7.553,2.231-12.955,5.004-19.337c2.393-5.558,9.463-18.78,14.363-20.134
		c1.359,15.964,11.584,32.655,25.591,36.415c8.298,2.223,15.733-0.11,20.303-3.603c9.296-7.113,14.811-20.833,12.698-35.805
		c-0.608-3.132-1.854-13.196-9.521-23.164c-8.174-10.61-25.93-17.502-42.228-7.778c-8.757,5.172-15.196,12.721-20.511,20.821
		c-2.917,4.455-6.257,9.322-8.576,13.881c-0.13,0.009-0.243,0.05-0.376,0.037c-0.656-8.927,3.81-16.005,3.077-24.563
		c-4.195,2.673-8.339,5.143-12.544,6.883c-6.584,2.717-11.623,4.299-17.229,5.643c-5.233,1.256-14.092,2.662-19.401,3.128
		c-7.097,0.627-12.656,0.816-16.946,0.66c-10.808-0.381-18.842-0.866-28.226-2.917c-0.136,0.138-0.255,0.259-0.354,0.422
		c0.533,3.716,1.992,11.966,3.815,13.957C831.321,86.933,836.791,85.515,841.325,86.894"/>
	<path fill="#7754B2" d="M624.61,183.769c-13.715-10.556-34.657-7.46-54.31-10.907c-14.567-2.553-29.316-12.845-29.176-22.031
		c0.184-12.145,11.977-22.872,28.448-18.361c12.234,3.362,27.754,15.027,37.345,29.937c3.716-0.861,5.428-2.991,8.564-4.13
		c-7.936-19.129-10.856-52.307-9.313-70.049c-3.676,0.709-7.355,1.477-11.001,2.216c-0.456,8.985-0.25,22.684-6.044,27.171
		c-2.025,1.566-5.046,2.127-14.623,1.119c-10.146-1.07-19.725-0.634-30.545,1.986c-21.053,5.089-48.915,24.299-56.032,40.28
		c-9.88,22.198-1.823,39.617,1.624,46.074c2.087,3.913,7.935,14.331,22.737,21.134c9.632,4.425,26.357,6.113,37.012,7.62
		c13.198,1.864,28.042,0.262,37.317,7.28c2.497,1.881,6.706,5.163,6.261,10.656c-0.627,8.015-6.497,12.471-14.168,16.013
		c-7.671,3.541-20.191,5.21-29.871,3.667c-24.646-3.937-33.93-13.213-39.122-43.077c-2.725,0.291-11.422,0.141-13.294,1.773
		c8.571,20.313,7.944,32.937,7.361,41.37c-0.8,11.477-4.111,27.247-7.464,32.189c2.211,1.84,9.246,3.307,11.704,4.032
		c0.799-2.117,1.562-8.598,3.964-13.876c2.397-5.282,6.97-11.197,14.928-14.317c6.575-2.563,15.217,1.36,19.783,2.54
		c7.267,1.943,15.038,3.367,22.855,3.627c13.169,0.427,34.415-5.69,39.113-8.169c19.688-10.495,27.553-21.685,32.185-43.69
		c1.947-9.299,1.247-24.563-3.47-34.468C634.202,194.799,629.843,187.82,624.61,183.769"/>
	<path fill="#7754B2" d="M490.053,277.923c2.62-0.418,5.655-10.382,5.259-11.84c-0.856-2.352-2.777-2.423-4.191-3.881
		c-2.724-2.829-5.422-5.948-7.859-8.99c-5.799-7.127-9.361-16.579-13.279-26.072c-3.406-8.279-6.265-28.521-6.862-40.314
		c-0.592-11.786-0.625-23.925-0.556-32.237c1.073-13.738,2.131-27.495,3.194-41.263c-0.103,0.023,0,0-1.095-0.208
		c-4.224,3.65-14.133,13.096-32.201,17.014c-14.797,3.206-32.031,1.743-41.662-0.839c-4.098-1.082-8.25-1.768-11.819-3.235
		c-0.124,0.028-2.023,11.265-1.996,16.632c12.054-1.125,24.364,8.119,28.535,17.713c4.003,9.21,9.209,46.066,9.784,63.295
		c0.57,17.228-1.355,42.099-13.55,53.791c-3.082,2.961-6.885,4.981-10.658,7.386c1.346,3.395,5.075,11.805,7.468,13.842
		c0.03,0.131,0.048,0.246,0.058,0.367c1.8-0.941,2.783-2.732,4.223-3.895c3.383-2.905,7.512-5.88,11.288-8.217
		c15.734-9.704,41.109-17.999,62.532-13.204C481.287,274.831,486.651,275.266,490.053,277.923"/>
	<path fill="#7754B2" d="M337.244,317.981c27.938-5.64,45.229,1.796,49.237,1.877c0.953-3.707,1.876-7.432,2.811-11.127
		c-1.571-1.398-4.862-4.752-6.827-6.866c-3.891-4.282-6.502-10.134-8.928-16.29c-2.808-7.088-3.557-24.092-2.903-30.421
		c2.375-22.366,4.479-44.13,12.375-62.194c3.546-8.236,6.731-15.22,16.299-18.904c-1.144-3.922-2.306-7.868-3.496-11.791
		c-0.126-0.103-0.287-0.184-0.404-0.292c-3.261,0.89-15.38,4.229-26.175,4.695c-12.672,0.544-25.225-1.948-29.229-2.876
		c0.387,3.064,1.149,13.746,2.541,15.42c10.955-0.207,12.939,1.566,18.593,9.614c4.417,6.273,4.839,19.124,3.815,26.583
		c-1.707,12.489-3.406,22.883-6.496,33.931c-1.086,4.003-2.974,11.25-6.462,18.705c-3.5-3.701-7.978-13.729-10.376-18.658
		c-9.397-19.27-22.732-55.354-4.919-70.273c-1.022-4.308-3.208-7.781-4.239-11.708c-2.149,1.068-14.434,8.467-38.346,12.484
		c-11.217,1.886-32.839,0.781-47.82-0.551c-0.324,1.518-0.827,11.598-2.967,15.417c2.308,0.712,4.072,1.557,6.261,2.687
		c3.313,1.702,7.434,6.146,9.42,9.52c4.609,7.714,7.383,21.076,4.614,36.413c-2.765,15.339-8.086,29.215-11.219,33.806
		c-2.703-5.011-5.948-13.692-7.519-18.198c-2.188-6.265-5.461-16.435-7.484-23.278c-1.9-6.409-4.769-14.326-4.704-23.944
		c0.058-7.643,3.25-13.679,6.798-15.922c-0.466-2.169-4.582-14.021-4.614-14.26c-16.487,9.941-33.973,15.017-46.946,16.673
		c-19.986,2.54-40.51,1.732-40.51,1.732s0.14,9.928-0.188,13.446c3.331,1.283,14.172,2.666,26.505,19.411
		c6.752,9.167,15.651,27.669,23.046,50.782c6.32,19.751,9.294,35.182,6.782,42.523c-2.249,6.58-6.377,9.869-11.946,13.867
		c0.78,2.59,6.138,14.523,6.17,14.787c3.284-4.064,14.751-16.847,38.328-21.65c22.31-5.093,47.558,2.587,49.669,4.022
		c0.475-2.226,0.525-9.394,1.044-13.562c-3.199-3.898-9.572-12.124-11.012-25.013c-2.191-20.973,1.646-53.873,3.755-58.021
		c1.787,3.496,3.913,8.456,4.745,10.175c9.779,19.909,24.101,58.058,5.287,72.786c0.984,4.034,4.821,11.118,5.526,11.476
		C300.186,334.251,309.306,323.627,337.244,317.981"/>
	<path fill="#7754B2" d="M694.98,116.193c4.188-0.705,25.874-6.049,36.773-10.633c-0.673-2.719-3.913-11.188-4.625-14.567
		c-0.104-0.117-4.604,1.835-9.391,3.465c-6.66,2.278-15.949,5.928-23.908,6.888c-1.768-18.535-3.651-56.723-3.646-68.935
		c0,0-7.797-0.794-8.913-0.654c-1.509,6.453-3.434,13.862-10.498,24.121c-6.468,9.387-16.423,16.113-37.143,24.199
		c2.301,9.412,5.009,26.729,5.165,30.888c-4.008,0.564-21.184,2.088-23.446,2.424c0.917,2.711,2.634,13.03,2.634,13.03
		c3.34,0.814,23.159-1.25,23.159-1.25s7.725,83.881,10.705,102.521c0.884,5.525,2.78,14.858,4.742,19.755
		c4.65,11.616,7.581,17.203,17.034,22.266c9.464,5.071,23.16,4.03,29.633,0.099c5.677-3.401,12.204-10.116,16.975-14.43
		c5.22-4.666,18.141-19.22,18.141-19.22c0.273-1.321-5.583-9.633-6.813-11.743c-3.581,1.271-6.063,5.776-11.775,4.553
		c-10.902-2.267-12.275-11.772-14.471-24.401C703.118,191.938,694.873,116.458,694.98,116.193"/>
	<path fill="#7754B2" d="M827.185,273.21c11.22-4.411,24.581-15.728,31.717-29.401c2.437-4.673,6.199-10.745,6.82-16.523
		c0.212-2.327-5.528-10.911-6.402-13.987c-0.149-0.107-0.283-0.216-0.413-0.334c-2.141,0.968-1.697,3.566-2.513,5.518
		c-1.415,3.331-2.73,6.994-4.396,10.243c-5.063,10.103-13.176,21.18-24.418,26.316c-5.957,2.724-11.853-0.682-15.121-3.159
		c-10.075-7.738-13.984-22.408-19.468-36.392c-1.711-4.318-2.178-8.884-3.682-12.902c-0.574-1.566-0.211-3.636-1.05-4.692
		c-0.437-3.149-0.87-6.309-1.35-9.433c0.996-0.907,8.108-4.557,10.212-5.479c12.347-5.441,31.965-8.726,46.426-9.476
		c8.068-0.418,17.597-0.335,19.304-0.556c0.207-1.252-0.846-9.695-1.146-11.895c-1.755-12.229-5.292-23.283-9.707-32.443
		c-12.917-26.636-34.98-50.804-70.067-42.276c-17.535,4.263-47.904,27.651-49.82,82.682c-1.519,43.714,20.188,74.07,28.467,83.478
		c16.062,18.244,32.147,22.417,44.813,24.091C811.32,277.351,822.148,275.191,827.185,273.21 M805.724,153.612
		c0.354,2.235,0.824,6.818,0.843,8.443c-0.049,0.018-6.83,2.22-9.479,3.249c-4.844,1.958-9.51,3.066-13.801,5.419
		c-2.097-3.434-2.76-11.626-3.475-16.621c-2.069-14.549-2.422-27.941,0.315-38.645c1.215-4.703,3.212-11.26,7.813-12.406
		c4.595-1.153,7.512,1.146,9.303,4.161c1.383,2.329,1.665,3.787,2.28,8.208C800.145,119.845,805.724,153.612,805.724,153.612"/>
	<path fill="#7754B2" d="M182.115,332.955c0,0-20.125-4.012-27.072-35.84c-6.624-30.299-16.143-44.729-26.581-50.5
		c-13.591-7.513-22.637-9.882-34.291-17.592c-1.973-1.155-5.989-4.03-7.84-5.539c1.599,2.728,7.533,12.76,11.4,15.237
		c-8.481,7.356-10.64,37.448-13.645,76.346c-2.027,26.335-17.736,27.826-17.736,27.826s8.488,27.188,13.699,29.011
		c5.891-0.898,8.194-0.842,12.696-4.001c4.501-3.158,19.773-14.397,33.153-16.18c17.06-2.287,34.351,4.565,44.059,9.151
		c3.851-0.901,5.431-2.615,7.544-3.881C179.302,351.064,179.472,351.083,182.115,332.955"/>
	<path fill="#7754B2" d="M62.132,146.52c0,0,1.849,29.872,11.152,49.044c9.03,18.612,37.641,31.531,48.552,39.759
		c-1.536-7.531,9.437-16.256,12.664-45.776c1.292-11.823-2.931-14.974-5.17-51.545c30.209-16.368,29.764,41.715,29.764,41.715
		l12.921-1.755l13.694-14.438c0,0-2.737-9.313-4.838-29.989c-2.558-25.183-1.153-46.968-1.153-46.968l-10.789,0.459
		c0,0-27.952,20.403-76.261,27.511c-46.438,6.834-85.654-2.113-85.654-2.113L0,117.055c0,0,5.521,20.116,9.204,41.596
		c3.674,21.391,6.199,38.174,6.199,38.174s25.522,0.332,25.419-7.06C37.265,139.559,62.132,146.52,62.132,146.52"/>
	<path fill="#00AEEF" d="M517.277,58.872c3.927,14.361-4.529,29.186-18.895,33.113c-14.366,3.928-29.19-4.534-33.117-18.894
		c-3.927-14.364,4.533-29.189,18.895-33.118C498.518,36.051,513.35,44.507,517.277,58.872"/>
	<path fill="#FFF200" d="M589.515,39.363c3.932,14.368-4.536,29.183-18.895,33.117c-14.36,3.922-29.186-4.531-33.112-18.889
		c-3.927-14.37,4.528-29.19,18.89-33.122C570.761,16.546,585.587,25.002,589.515,39.363"/>
	<path fill="#8DC63F" d="M661.758,19.855c3.928,14.361-4.533,29.185-18.898,33.112c-14.36,3.927-29.18-4.528-33.117-18.894
		c-3.922-14.358,4.533-29.183,18.895-33.112C642.995-2.965,657.831,5.488,661.758,19.855"/>
	<path fill="#ED1849" d="M445.033,78.378c3.932,14.36-4.529,29.185-18.885,33.111c-14.368,3.933-29.192-4.524-33.122-18.887
		c-3.928-14.364,4.536-29.189,18.889-33.121C426.281,55.563,441.11,64.015,445.033,78.378"/>
	<g>
		<path d="M991.882,225.269c0.229,1.47,0.184,2.85-0.12,4.134c-0.624,2.582-2.024,4.547-4.207,5.9
			c-1.052,0.649-2.236,1.079-3.546,1.288c-1.313,0.197-2.582,0.14-3.803-0.175c-2.459-0.647-4.364-2.108-5.71-4.396
			c-0.657-1.126-1.099-2.405-1.323-3.843c-0.229-1.435-0.188-2.797,0.119-4.081c0.611-2.569,2.017-4.537,4.217-5.902
			c1.061-0.652,2.22-1.074,3.472-1.271c1.256-0.201,2.482-0.153,3.686,0.137c2.504,0.612,4.446,2.052,5.824,4.313
			C991.188,222.499,991.647,223.796,991.882,225.269z M989.847,225.593c-0.382-2.387-1.392-4.227-3.031-5.517
			c-1.645-1.294-3.501-1.775-5.575-1.444c-2.074,0.326-3.694,1.359-4.856,3.095c-1.162,1.736-1.557,3.778-1.186,6.13
			c0.372,2.345,1.355,4.188,2.953,5.531c1.604,1.333,3.465,1.832,5.587,1.494c2.122-0.335,3.767-1.373,4.929-3.107
			C989.829,230.036,990.224,227.979,989.847,225.593z M981.561,232.661l-1.742,0.277l-1.722-10.876l4.005-0.636
			c1.277-0.212,2.278-0.12,3.006,0.272c0.725,0.396,1.166,1.111,1.322,2.157c0.166,1.042,0.023,1.832-0.428,2.369
			c-0.454,0.535-1.065,0.909-1.837,1.118l3.716,4.318l-1.963,0.31l-3.463-4.21l-1.63,0.258L981.561,232.661z M982.517,226.187
			c0.826-0.131,1.364-0.296,1.617-0.493c0.482-0.384,0.67-0.917,0.563-1.604c-0.137-0.861-0.72-1.26-1.737-1.196
			c-0.278,0.019-0.54,0.046-0.789,0.085l-2.091,0.331l0.508,3.184L982.517,226.187z"/>
	</g>
</g>
</svg>
